<mxfile host="www.draw.io" modified="2019-10-21T03:14:40.614Z" agent="Mozilla/5.0 (Macintosh; Intel Mac OS X 10_14_6) AppleWebKit/605.1.15 (KHTML, like Gecko) Version/13.0.2 Safari/605.1.15" etag="Vqpps-efgrp0PGbDaFcr" version="12.1.3" type="github" pages="1">
  <diagram id="PtFR2M7_tXtKYrFW8lSv" name="Page-1">
    <mxGraphModel dx="932" dy="569" grid="0" gridSize="10" guides="1" tooltips="1" connect="1" arrows="1" fold="1" page="1" pageScale="1" pageWidth="3300" pageHeight="4681" math="0" shadow="0">
      <root>
        <mxCell id="0"/>
        <mxCell id="1" parent="0"/>
        <mxCell id="sPacu9p47zKpvOx0FIWo-47" value="" style="rounded=0;whiteSpace=wrap;html=1;strokeColor=#6c8ebf;strokeWidth=1;fillColor=#dae8fc;fontSize=12;align=center;" parent="1" vertex="1">
          <mxGeometry x="591" y="208" width="726" height="332" as="geometry"/>
        </mxCell>
        <mxCell id="nEOF1kNpwPRWHeqvcLlS-4" value="" style="rounded=0;whiteSpace=wrap;html=1;fillColor=none;fontSize=10;dashed=1;strokeColor=#d79b00;strokeWidth=2;" parent="1" vertex="1">
          <mxGeometry x="870" y="256" width="395" height="271" as="geometry"/>
        </mxCell>
        <mxCell id="sPacu9p47zKpvOx0FIWo-21" value="" style="rounded=0;whiteSpace=wrap;html=1;strokeColor=#666666;fillColor=#f5f5f5;fontSize=12;align=center;fontColor=#333333;" parent="1" vertex="1">
          <mxGeometry x="310" y="208" width="170" height="310" as="geometry"/>
        </mxCell>
        <mxCell id="sPacu9p47zKpvOx0FIWo-9" value="" style="html=1;fillColor=#99CCFF;strokeColor=#6881B3;gradientColor=none;gradientDirection=north;strokeWidth=1;shape=mxgraph.networks.bus;gradientColor=none;gradientDirection=north;fontColor=#ffffff;perimeter=backbonePerimeter;backboneSize=20;align=center;fontSize=12;" parent="1" vertex="1">
          <mxGeometry x="891" y="373" width="347" height="10" as="geometry"/>
        </mxCell>
        <mxCell id="sPacu9p47zKpvOx0FIWo-10" value="" style="strokeColor=#6881B3;edgeStyle=none;rounded=0;endArrow=none;html=1;strokeWidth=1;fontSize=12;" parent="1" edge="1">
          <mxGeometry relative="1" as="geometry">
            <mxPoint x="955.5" y="326" as="sourcePoint"/>
            <mxPoint x="955.5" y="368.92857142857156" as="targetPoint"/>
          </mxGeometry>
        </mxCell>
        <mxCell id="sPacu9p47zKpvOx0FIWo-12" value="" style="strokeColor=#6881B3;edgeStyle=none;rounded=0;endArrow=none;html=1;strokeWidth=1;fontSize=12;" parent="1" edge="1">
          <mxGeometry relative="1" as="geometry">
            <mxPoint x="1065" y="325.5" as="sourcePoint"/>
            <mxPoint x="1065" y="367.67647058823536" as="targetPoint"/>
          </mxGeometry>
        </mxCell>
        <mxCell id="sPacu9p47zKpvOx0FIWo-14" value="" style="strokeColor=#6881B3;edgeStyle=none;rounded=0;endArrow=none;html=1;strokeWidth=1;fontSize=12;" parent="1" edge="1">
          <mxGeometry relative="1" as="geometry">
            <mxPoint x="922.5" y="436" as="sourcePoint"/>
            <mxPoint x="922.5" y="386" as="targetPoint"/>
          </mxGeometry>
        </mxCell>
        <mxCell id="sPacu9p47zKpvOx0FIWo-26" value="" style="shape=image;html=1;verticalAlign=top;verticalLabelPosition=bottom;labelBackgroundColor=#ffffff;imageAspect=0;aspect=fixed;image=https://cdn4.iconfinder.com/data/icons/VISTA/networking/png/128/firewall.png;strokeColor=#6881B3;fillColor=#99CCFF;fontSize=12;align=center;" parent="1" vertex="1">
          <mxGeometry x="231" y="363" width="40" height="40" as="geometry"/>
        </mxCell>
        <mxCell id="sPacu9p47zKpvOx0FIWo-27" value="" style="endArrow=none;html=1;fontSize=12;entryX=0;entryY=0.5;entryDx=0;entryDy=0;exitX=1.114;exitY=0.482;exitDx=0;exitDy=0;exitPerimeter=0;strokeColor=#6881B3;" parent="1" source="sPacu9p47zKpvOx0FIWo-23" target="sPacu9p47zKpvOx0FIWo-26" edge="1">
          <mxGeometry width="50" height="50" relative="1" as="geometry">
            <mxPoint x="198" y="470" as="sourcePoint"/>
            <mxPoint x="248" y="420" as="targetPoint"/>
          </mxGeometry>
        </mxCell>
        <mxCell id="sPacu9p47zKpvOx0FIWo-32" value="" style="shadow=0;dashed=0;html=1;labelPosition=center;verticalLabelPosition=bottom;verticalAlign=top;align=center;outlineConnect=0;shape=mxgraph.veeam.3d.proxy_appliance;direction=east;" parent="1" vertex="1">
          <mxGeometry x="334" y="356" width="46" height="44.5625" as="geometry"/>
        </mxCell>
        <mxCell id="sPacu9p47zKpvOx0FIWo-22" value="&lt;font style=&quot;font-size: 15px&quot;&gt;DMZ区&lt;/font&gt;" style="text;html=1;resizable=0;points=[];autosize=1;align=center;verticalAlign=top;spacingTop=-4;fontSize=12;" parent="1" vertex="1">
          <mxGeometry x="365" y="218" width="58" height="15" as="geometry"/>
        </mxCell>
        <mxCell id="sPacu9p47zKpvOx0FIWo-35" value="" style="endArrow=none;html=1;strokeColor=#6881B3;strokeWidth=1;fontSize=12;exitX=1;exitY=0.5;exitDx=0;exitDy=0;entryX=0.512;entryY=0.583;entryDx=0;entryDy=0;entryPerimeter=0;" parent="1" source="sPacu9p47zKpvOx0FIWo-26" target="sPacu9p47zKpvOx0FIWo-32" edge="1">
          <mxGeometry width="50" height="50" relative="1" as="geometry">
            <mxPoint x="250" y="373" as="sourcePoint"/>
            <mxPoint x="360" y="300" as="targetPoint"/>
          </mxGeometry>
        </mxCell>
        <mxCell id="sPacu9p47zKpvOx0FIWo-48" value="&lt;font style=&quot;font-size: 15px&quot;&gt;互联网区&lt;/font&gt;" style="text;html=1;resizable=0;points=[];autosize=1;align=left;verticalAlign=top;spacingTop=-4;fontSize=12;" parent="1" vertex="1">
          <mxGeometry x="937.5" y="218" width="70" height="15" as="geometry"/>
        </mxCell>
        <mxCell id="sPacu9p47zKpvOx0FIWo-49" value="" style="shape=image;html=1;verticalAlign=top;verticalLabelPosition=bottom;labelBackgroundColor=#ffffff;imageAspect=0;aspect=fixed;image=https://cdn4.iconfinder.com/data/icons/VISTA/networking/png/128/firewall.png;strokeColor=#6881B3;fillColor=#99CCFF;fontSize=12;align=center;" parent="1" vertex="1">
          <mxGeometry x="507" y="360" width="40" height="40" as="geometry"/>
        </mxCell>
        <mxCell id="sPacu9p47zKpvOx0FIWo-50" value="" style="endArrow=none;html=1;strokeColor=#6881B3;strokeWidth=1;fontSize=12;exitX=1;exitY=0.5;exitDx=0;exitDy=0;entryX=0;entryY=0.25;entryDx=0;entryDy=0;" parent="1" source="sPacu9p47zKpvOx0FIWo-84" target="sPacu9p47zKpvOx0FIWo-49" edge="1">
          <mxGeometry width="50" height="50" relative="1" as="geometry">
            <mxPoint x="433.4000000000001" y="385.1199999999999" as="sourcePoint"/>
            <mxPoint x="570" y="430" as="targetPoint"/>
          </mxGeometry>
        </mxCell>
        <mxCell id="sPacu9p47zKpvOx0FIWo-51" value="" style="shadow=0;dashed=0;html=1;labelPosition=center;verticalLabelPosition=bottom;verticalAlign=top;align=center;outlineConnect=0;shape=mxgraph.veeam.3d.proxy_appliance;direction=east;" parent="1" vertex="1">
          <mxGeometry x="614" y="355.5" width="46" height="44.5625" as="geometry"/>
        </mxCell>
        <mxCell id="sPacu9p47zKpvOx0FIWo-52" value="" style="endArrow=none;html=1;strokeColor=#6881B3;strokeWidth=1;fontSize=12;entryX=-0.066;entryY=0.515;entryDx=0;entryDy=0;entryPerimeter=0;" parent="1" source="sPacu9p47zKpvOx0FIWo-49" target="sPacu9p47zKpvOx0FIWo-51" edge="1">
          <mxGeometry width="50" height="50" relative="1" as="geometry">
            <mxPoint x="587" y="460" as="sourcePoint"/>
            <mxPoint x="637" y="410" as="targetPoint"/>
          </mxGeometry>
        </mxCell>
        <mxCell id="sPacu9p47zKpvOx0FIWo-57" value="外联前置&lt;br style=&quot;font-size: 10px&quot;&gt;堡垒机" style="text;html=1;resizable=0;points=[];autosize=1;align=center;verticalAlign=top;spacingTop=-4;fontSize=10;" parent="1" vertex="1">
          <mxGeometry x="409" y="333" width="50" height="24" as="geometry"/>
        </mxCell>
        <mxCell id="sPacu9p47zKpvOx0FIWo-58" value="" style="group" parent="1" vertex="1" connectable="0">
          <mxGeometry x="719.5" y="356" width="56" height="40" as="geometry"/>
        </mxCell>
        <mxCell id="sPacu9p47zKpvOx0FIWo-59" value="" style="aspect=fixed;perimeter=ellipsePerimeter;html=1;align=center;shadow=0;dashed=0;spacingTop=3;image;image=img/lib/active_directory/web_server.svg;strokeColor=#6881B3;strokeWidth=1;fillColor=#99CCFF;fontSize=12;" parent="sPacu9p47zKpvOx0FIWo-58" vertex="1">
          <mxGeometry width="32" height="40" as="geometry"/>
        </mxCell>
        <mxCell id="sPacu9p47zKpvOx0FIWo-60" value="" style="aspect=fixed;perimeter=ellipsePerimeter;html=1;align=center;shadow=0;dashed=0;spacingTop=3;image;image=img/lib/active_directory/web_server.svg;strokeColor=#6881B3;strokeWidth=1;fillColor=#99CCFF;fontSize=12;" parent="sPacu9p47zKpvOx0FIWo-58" vertex="1">
          <mxGeometry x="24" y="2" width="32" height="40" as="geometry"/>
        </mxCell>
        <mxCell id="sPacu9p47zKpvOx0FIWo-61" value="互联网区U链&lt;br&gt;业务应用服务器" style="text;html=1;resizable=0;points=[];autosize=1;align=center;verticalAlign=top;spacingTop=-4;fontSize=10;" parent="1" vertex="1">
          <mxGeometry x="705.5" y="398" width="80" height="24" as="geometry"/>
        </mxCell>
        <mxCell id="sPacu9p47zKpvOx0FIWo-72" value="区块链服务平台&lt;br&gt;管理后台&lt;br&gt;(2台)" style="text;html=1;resizable=0;points=[];autosize=1;align=center;verticalAlign=top;spacingTop=-4;fontSize=10;fillColor=#DAE8FC;" parent="1" vertex="1">
          <mxGeometry x="916.5" y="312" width="80" height="36" as="geometry"/>
        </mxCell>
        <mxCell id="sPacu9p47zKpvOx0FIWo-62" value="" style="aspect=fixed;perimeter=ellipsePerimeter;html=1;align=center;shadow=0;dashed=0;spacingTop=3;image;image=img/lib/active_directory/database_server.svg;strokeColor=#6881B3;strokeWidth=1;fillColor=#99CCFF;fontSize=8;" parent="1" vertex="1">
          <mxGeometry x="718" y="262" width="32.8" height="40" as="geometry"/>
        </mxCell>
        <mxCell id="sPacu9p47zKpvOx0FIWo-63" value="" style="aspect=fixed;perimeter=ellipsePerimeter;html=1;align=center;shadow=0;dashed=0;spacingTop=3;image;image=img/lib/active_directory/database_server.svg;strokeColor=#6881B3;strokeWidth=1;fillColor=#99CCFF;fontSize=8;" parent="1" vertex="1">
          <mxGeometry x="736" y="262" width="32.8" height="40" as="geometry"/>
        </mxCell>
        <mxCell id="sPacu9p47zKpvOx0FIWo-64" value="" style="aspect=fixed;perimeter=ellipsePerimeter;html=1;align=center;shadow=0;dashed=0;spacingTop=3;image;image=img/lib/active_directory/database_server.svg;strokeColor=#6881B3;strokeWidth=1;fillColor=#99CCFF;fontSize=8;" parent="1" vertex="1">
          <mxGeometry x="754.5" y="262" width="32.8" height="40" as="geometry"/>
        </mxCell>
        <mxCell id="sPacu9p47zKpvOx0FIWo-90" value="平台共识&lt;br&gt;服务器&lt;br&gt;(3台)" style="text;html=1;resizable=0;points=[];autosize=1;align=center;verticalAlign=top;spacingTop=-4;fontSize=10;" parent="1" vertex="1">
          <mxGeometry x="888" y="479" width="50" height="36" as="geometry"/>
        </mxCell>
        <mxCell id="sPacu9p47zKpvOx0FIWo-82" value="" style="aspect=fixed;perimeter=ellipsePerimeter;html=1;align=center;shadow=0;dashed=0;spacingTop=3;image;image=img/lib/active_directory/generic_server.svg;strokeColor=#6881B3;strokeWidth=1;fillColor=#99CCFF;fontSize=8;" parent="1" vertex="1">
          <mxGeometry x="894" y="439" width="22.4" height="40" as="geometry"/>
        </mxCell>
        <mxCell id="sPacu9p47zKpvOx0FIWo-101" value="平台账本&lt;br&gt;服务器&lt;br&gt;(4台)" style="text;html=1;resizable=0;points=[];autosize=1;align=center;verticalAlign=top;spacingTop=-4;fontSize=10;" parent="1" vertex="1">
          <mxGeometry x="963" y="478" width="50" height="36" as="geometry"/>
        </mxCell>
        <mxCell id="sPacu9p47zKpvOx0FIWo-112" value="" style="rounded=0;whiteSpace=wrap;html=1;strokeColor=#6c8ebf;strokeWidth=1;fillColor=#dae8fc;fontSize=8;align=center;" parent="1" vertex="1">
          <mxGeometry x="1086" y="602.8529411764706" width="170" height="310" as="geometry"/>
        </mxCell>
        <mxCell id="sPacu9p47zKpvOx0FIWo-113" value="&lt;font style=&quot;font-size: 15px&quot;&gt;AG区&lt;/font&gt;" style="text;html=1;resizable=0;points=[];autosize=1;align=center;verticalAlign=top;spacingTop=-4;fontSize=12;" parent="1" vertex="1">
          <mxGeometry x="1145.5" y="612.8529411764706" width="47" height="15" as="geometry"/>
        </mxCell>
        <mxCell id="sPacu9p47zKpvOx0FIWo-115" value="负载均衡器" style="text;html=1;resizable=0;points=[];autosize=1;align=center;verticalAlign=top;spacingTop=-4;fontSize=10;" parent="1" vertex="1">
          <mxGeometry x="320" y="407" width="60" height="10" as="geometry"/>
        </mxCell>
        <mxCell id="sPacu9p47zKpvOx0FIWo-116" value="负载均衡器" style="text;html=1;resizable=0;points=[];autosize=1;align=center;verticalAlign=top;spacingTop=-4;fontSize=8;" parent="1" vertex="1">
          <mxGeometry x="607" y="410" width="60" height="10" as="geometry"/>
        </mxCell>
        <mxCell id="sPacu9p47zKpvOx0FIWo-117" value="" style="shadow=0;dashed=0;html=1;labelPosition=center;verticalLabelPosition=bottom;verticalAlign=top;align=center;outlineConnect=0;shape=mxgraph.veeam.3d.proxy_appliance;direction=east;" parent="1" vertex="1">
          <mxGeometry x="1146.5" y="658.8529411764706" width="46" height="44.5625" as="geometry"/>
        </mxCell>
        <mxCell id="sPacu9p47zKpvOx0FIWo-118" value="负载均衡器" style="text;html=1;resizable=0;points=[];autosize=1;align=center;verticalAlign=top;spacingTop=-4;fontSize=10;" parent="1" vertex="1">
          <mxGeometry x="1139.5" y="705.8529411764706" width="60" height="10" as="geometry"/>
        </mxCell>
        <mxCell id="sPacu9p47zKpvOx0FIWo-119" value="" style="html=1;fillColor=#99CCFF;strokeColor=#6881B3;gradientColor=none;gradientDirection=north;strokeWidth=1;shape=mxgraph.networks.bus;gradientColor=none;gradientDirection=north;fontColor=#ffffff;perimeter=backbonePerimeter;backboneSize=20;align=center;fontSize=12;" parent="1" vertex="1">
          <mxGeometry x="1119.5" y="766.8529411764706" width="100" height="10" as="geometry"/>
        </mxCell>
        <mxCell id="wzntJS4Hk8glmOeOFhAp-34" style="edgeStyle=orthogonalEdgeStyle;rounded=0;orthogonalLoop=1;jettySize=auto;html=1;exitX=1;exitY=0.5;exitDx=0;exitDy=0;entryX=0.986;entryY=0.414;entryDx=0;entryDy=0;entryPerimeter=0;endArrow=none;endFill=0;strokeColor=#6881B3;" parent="1" source="sPacu9p47zKpvOx0FIWo-120" target="sPacu9p47zKpvOx0FIWo-9" edge="1">
          <mxGeometry relative="1" as="geometry">
            <Array as="points">
              <mxPoint x="1376" y="774"/>
              <mxPoint x="1376" y="377"/>
            </Array>
          </mxGeometry>
        </mxCell>
        <mxCell id="sPacu9p47zKpvOx0FIWo-120" value="" style="shape=image;html=1;verticalAlign=top;verticalLabelPosition=bottom;labelBackgroundColor=#ffffff;imageAspect=0;aspect=fixed;image=https://cdn4.iconfinder.com/data/icons/VISTA/networking/png/128/firewall.png;strokeColor=#6881B3;fillColor=#99CCFF;fontSize=12;align=center;" parent="1" vertex="1">
          <mxGeometry x="1324.5" y="754" width="40" height="40" as="geometry"/>
        </mxCell>
        <mxCell id="sPacu9p47zKpvOx0FIWo-123" value="" style="endArrow=none;html=1;strokeColor=#6881B3;strokeWidth=1;fontSize=8;exitX=0.485;exitY=-0.318;exitDx=0;exitDy=0;exitPerimeter=0;entryX=0.456;entryY=1.182;entryDx=0;entryDy=0;entryPerimeter=0;" parent="1" source="sPacu9p47zKpvOx0FIWo-119" target="sPacu9p47zKpvOx0FIWo-118" edge="1">
          <mxGeometry width="50" height="50" relative="1" as="geometry">
            <mxPoint x="1250.5" y="757.8529411764706" as="sourcePoint"/>
            <mxPoint x="1300.5" y="707.8529411764706" as="targetPoint"/>
          </mxGeometry>
        </mxCell>
        <mxCell id="sPacu9p47zKpvOx0FIWo-125" value="" style="group" parent="1" vertex="1" connectable="0">
          <mxGeometry x="1150" y="829.8529411764706" width="42.39999999999998" height="40" as="geometry"/>
        </mxCell>
        <mxCell id="sPacu9p47zKpvOx0FIWo-126" value="" style="aspect=fixed;perimeter=ellipsePerimeter;html=1;align=center;shadow=0;dashed=0;spacingTop=3;image;image=img/lib/active_directory/generic_server.svg;strokeColor=#6881B3;strokeWidth=1;fillColor=#99CCFF;fontSize=8;" parent="sPacu9p47zKpvOx0FIWo-125" vertex="1">
          <mxGeometry width="22.4" height="40" as="geometry"/>
        </mxCell>
        <mxCell id="sPacu9p47zKpvOx0FIWo-127" value="" style="aspect=fixed;perimeter=ellipsePerimeter;html=1;align=center;shadow=0;dashed=0;spacingTop=3;image;image=img/lib/active_directory/generic_server.svg;strokeColor=#6881B3;strokeWidth=1;fillColor=#99CCFF;fontSize=8;" parent="sPacu9p47zKpvOx0FIWo-125" vertex="1">
          <mxGeometry x="20" width="22.4" height="40" as="geometry"/>
        </mxCell>
        <mxCell id="sPacu9p47zKpvOx0FIWo-129" value="内联接口&lt;br style=&quot;font-size: 10px;&quot;&gt;堡垒机" style="text;html=1;resizable=0;points=[];autosize=1;align=center;verticalAlign=top;spacingTop=-4;fontSize=10;" parent="1" vertex="1">
          <mxGeometry x="1147.5" y="869.8529411764706" width="50" height="20" as="geometry"/>
        </mxCell>
        <mxCell id="sPacu9p47zKpvOx0FIWo-130" value="" style="strokeColor=#6881B3;edgeStyle=none;rounded=0;endArrow=none;html=1;strokeWidth=1;fontSize=12;" parent="1" edge="1">
          <mxGeometry relative="1" as="geometry">
            <mxPoint x="1169.5" y="832.8529411764706" as="sourcePoint"/>
            <mxPoint x="1169.5" y="782.9999999999999" as="targetPoint"/>
            <Array as="points">
              <mxPoint x="1169.5" y="809.8529411764706"/>
            </Array>
          </mxGeometry>
        </mxCell>
        <mxCell id="sPacu9p47zKpvOx0FIWo-131" value="" style="rounded=0;whiteSpace=wrap;html=1;strokeColor=#82b366;strokeWidth=1;fillColor=#d5e8d4;fontSize=8;align=center;" parent="1" vertex="1">
          <mxGeometry x="309" y="599" width="586" height="310" as="geometry"/>
        </mxCell>
        <mxCell id="sPacu9p47zKpvOx0FIWo-133" value="" style="html=1;fillColor=#99CCFF;strokeColor=#6881B3;gradientColor=none;gradientDirection=north;strokeWidth=1;shape=mxgraph.networks.bus;gradientColor=none;gradientDirection=north;fontColor=#ffffff;perimeter=backbonePerimeter;backboneSize=20;align=center;" parent="1" vertex="1">
          <mxGeometry x="465" y="767" width="373" height="20" as="geometry"/>
        </mxCell>
        <mxCell id="sPacu9p47zKpvOx0FIWo-135" value="" style="strokeColor=#6881B3;edgeStyle=none;rounded=0;endArrow=none;html=1;strokeWidth=1;fontSize=8;" parent="1" edge="1">
          <mxGeometry relative="1" as="geometry">
            <mxPoint x="538.5" y="725.3529411764706" as="sourcePoint"/>
            <mxPoint x="538.5" y="768.0294117647057" as="targetPoint"/>
          </mxGeometry>
        </mxCell>
        <mxCell id="sPacu9p47zKpvOx0FIWo-136" value="" style="strokeColor=#6881B3;edgeStyle=none;rounded=0;endArrow=none;html=1;strokeWidth=1;fontSize=8;" parent="1" edge="1">
          <mxGeometry relative="1" as="geometry">
            <mxPoint x="677.5" y="726.3529411764706" as="sourcePoint"/>
            <mxPoint x="677.5" y="769.0294117647057" as="targetPoint"/>
          </mxGeometry>
        </mxCell>
        <mxCell id="sPacu9p47zKpvOx0FIWo-137" value="" style="strokeColor=#6881B3;edgeStyle=none;rounded=0;endArrow=none;html=1;strokeWidth=1;fontSize=8;" parent="1" edge="1">
          <mxGeometry relative="1" as="geometry">
            <mxPoint x="749.5" y="728.8529411764706" as="sourcePoint"/>
            <mxPoint x="749.5" y="768.0196078431374" as="targetPoint"/>
          </mxGeometry>
        </mxCell>
        <mxCell id="sPacu9p47zKpvOx0FIWo-142" value="" style="shadow=0;dashed=0;html=1;labelPosition=center;verticalLabelPosition=bottom;verticalAlign=top;align=center;outlineConnect=0;shape=mxgraph.veeam.3d.proxy_appliance;direction=east;" parent="1" vertex="1">
          <mxGeometry x="382" y="827.8529411764706" width="45" height="44" as="geometry"/>
        </mxCell>
        <mxCell id="sPacu9p47zKpvOx0FIWo-143" value="负载均衡器" style="text;html=1;resizable=0;points=[];autosize=1;align=center;verticalAlign=top;spacingTop=-4;fontSize=10;" parent="1" vertex="1">
          <mxGeometry x="371" y="875.8529411764706" width="60" height="10" as="geometry"/>
        </mxCell>
        <mxCell id="sPacu9p47zKpvOx0FIWo-145" value="" style="aspect=fixed;perimeter=ellipsePerimeter;html=1;align=center;shadow=0;dashed=0;spacingTop=3;image;image=img/lib/active_directory/generic_server.svg;strokeColor=#6881B3;strokeWidth=1;fillColor=#99CCFF;fontSize=8;" parent="1" vertex="1">
          <mxGeometry x="738.5" y="663" width="22.4" height="40" as="geometry"/>
        </mxCell>
        <mxCell id="sPacu9p47zKpvOx0FIWo-146" value="" style="aspect=fixed;perimeter=ellipsePerimeter;html=1;align=center;shadow=0;dashed=0;spacingTop=3;image;image=img/lib/active_directory/generic_server.svg;strokeColor=#6881B3;strokeWidth=1;fillColor=#99CCFF;fontSize=8;" parent="1" vertex="1">
          <mxGeometry x="666" y="663" width="22.4" height="40" as="geometry"/>
        </mxCell>
        <mxCell id="sPacu9p47zKpvOx0FIWo-147" value="企业服务&lt;br&gt;总线" style="text;html=1;resizable=0;points=[];autosize=1;align=center;verticalAlign=top;spacingTop=-4;fontSize=10;" parent="1" vertex="1">
          <mxGeometry x="721" y="703" width="58" height="24" as="geometry"/>
        </mxCell>
        <mxCell id="sPacu9p47zKpvOx0FIWo-148" value="渠道管理&lt;br&gt;平台" style="text;html=1;resizable=0;points=[];autosize=1;align=center;verticalAlign=top;spacingTop=-4;fontSize=10;" parent="1" vertex="1">
          <mxGeometry x="651" y="703" width="58" height="24" as="geometry"/>
        </mxCell>
        <mxCell id="sPacu9p47zKpvOx0FIWo-149" value="" style="aspect=fixed;perimeter=ellipsePerimeter;html=1;align=center;shadow=0;dashed=0;spacingTop=3;image;image=img/lib/active_directory/generic_server.svg;strokeColor=#6881B3;strokeWidth=1;fillColor=#99CCFF;fontSize=8;" parent="1" vertex="1">
          <mxGeometry x="529.5" y="663" width="22.4" height="40" as="geometry"/>
        </mxCell>
        <mxCell id="sPacu9p47zKpvOx0FIWo-150" value="企业数据&lt;br&gt;总线" style="text;html=1;resizable=0;points=[];autosize=1;align=center;verticalAlign=top;spacingTop=-4;fontSize=10;" parent="1" vertex="1">
          <mxGeometry x="509" y="702.8529411764706" width="58" height="24" as="geometry"/>
        </mxCell>
        <mxCell id="sPacu9p47zKpvOx0FIWo-151" value="" style="group" parent="1" vertex="1" connectable="0">
          <mxGeometry x="467.5" y="828.8529411764706" width="56" height="40" as="geometry"/>
        </mxCell>
        <mxCell id="sPacu9p47zKpvOx0FIWo-152" value="" style="aspect=fixed;perimeter=ellipsePerimeter;html=1;align=center;shadow=0;dashed=0;spacingTop=3;image;image=img/lib/active_directory/web_server.svg;strokeColor=#6881B3;strokeWidth=1;fillColor=#99CCFF;fontSize=12;" parent="sPacu9p47zKpvOx0FIWo-151" vertex="1">
          <mxGeometry width="32" height="40" as="geometry"/>
        </mxCell>
        <mxCell id="sPacu9p47zKpvOx0FIWo-153" value="" style="aspect=fixed;perimeter=ellipsePerimeter;html=1;align=center;shadow=0;dashed=0;spacingTop=3;image;image=img/lib/active_directory/web_server.svg;strokeColor=#6881B3;strokeWidth=1;fillColor=#99CCFF;fontSize=12;" parent="sPacu9p47zKpvOx0FIWo-151" vertex="1">
          <mxGeometry x="24" y="2" width="32" height="40" as="geometry"/>
        </mxCell>
        <mxCell id="sPacu9p47zKpvOx0FIWo-154" value="核心区U链&lt;br&gt;业务应用服务器" style="text;html=1;resizable=0;points=[];autosize=1;align=center;verticalAlign=top;spacingTop=-4;fontSize=10;" parent="1" vertex="1">
          <mxGeometry x="451.5" y="874.8529411764706" width="80" height="24" as="geometry"/>
        </mxCell>
        <mxCell id="sPacu9p47zKpvOx0FIWo-155" value="业务应用数据库" style="text;html=1;resizable=0;points=[];autosize=1;align=center;verticalAlign=top;spacingTop=-4;fontSize=10;" parent="1" vertex="1">
          <mxGeometry x="552.5" y="874.8529411764706" width="94" height="12" as="geometry"/>
        </mxCell>
        <mxCell id="sPacu9p47zKpvOx0FIWo-156" value="" style="aspect=fixed;perimeter=ellipsePerimeter;html=1;align=center;shadow=0;dashed=0;spacingTop=3;image;image=img/lib/active_directory/database_server.svg;strokeColor=#6881B3;strokeWidth=1;fillColor=#99CCFF;fontSize=8;" parent="1" vertex="1">
          <mxGeometry x="563" y="830.8529411764706" width="32.8" height="40" as="geometry"/>
        </mxCell>
        <mxCell id="sPacu9p47zKpvOx0FIWo-157" value="" style="aspect=fixed;perimeter=ellipsePerimeter;html=1;align=center;shadow=0;dashed=0;spacingTop=3;image;image=img/lib/active_directory/database_server.svg;strokeColor=#6881B3;strokeWidth=1;fillColor=#99CCFF;fontSize=8;" parent="1" vertex="1">
          <mxGeometry x="581" y="830.8529411764706" width="32.8" height="40" as="geometry"/>
        </mxCell>
        <mxCell id="sPacu9p47zKpvOx0FIWo-158" value="" style="aspect=fixed;perimeter=ellipsePerimeter;html=1;align=center;shadow=0;dashed=0;spacingTop=3;image;image=img/lib/active_directory/database_server.svg;strokeColor=#6881B3;strokeWidth=1;fillColor=#99CCFF;fontSize=8;" parent="1" vertex="1">
          <mxGeometry x="599.5" y="830.8529411764706" width="32.8" height="40" as="geometry"/>
        </mxCell>
        <mxCell id="sPacu9p47zKpvOx0FIWo-159" value="&lt;font style=&quot;font-size: 15px&quot;&gt;核心区&lt;/font&gt;" style="text;html=1;resizable=0;points=[];autosize=1;align=center;verticalAlign=top;spacingTop=-4;fontSize=12;" parent="1" vertex="1">
          <mxGeometry x="597.5" y="609.3529411764706" width="55" height="15" as="geometry"/>
        </mxCell>
        <mxCell id="sPacu9p47zKpvOx0FIWo-160" value="" style="shape=image;html=1;verticalAlign=top;verticalLabelPosition=bottom;labelBackgroundColor=#ffffff;imageAspect=0;aspect=fixed;image=https://cdn4.iconfinder.com/data/icons/VISTA/networking/png/128/firewall.png;strokeColor=#6881B3;fillColor=#99CCFF;fontSize=12;align=center;" parent="1" vertex="1">
          <mxGeometry x="997.5" y="753.8529411764706" width="40" height="40" as="geometry"/>
        </mxCell>
        <mxCell id="sPacu9p47zKpvOx0FIWo-106" value="" style="points=[];aspect=fixed;html=1;align=center;shadow=0;dashed=0;image;image=img/lib/allied_telesis/computer_and_terminals/Personal_Computer.svg;strokeColor=#6881B3;fillColor=#99CCFF;fontSize=12;" parent="1" vertex="1">
          <mxGeometry x="155" y="745.45" width="29.5" height="40.31666666666666" as="geometry"/>
        </mxCell>
        <mxCell id="sPacu9p47zKpvOx0FIWo-104" value="" style="verticalLabelPosition=bottom;html=1;verticalAlign=top;align=center;strokeColor=none;fillColor=#00BEF2;shape=mxgraph.azure.user;" parent="1" vertex="1">
          <mxGeometry x="111" y="742.5" width="40" height="39.33333333333333" as="geometry"/>
        </mxCell>
        <mxCell id="sPacu9p47zKpvOx0FIWo-105" value="区块链服务平台用户" style="text;html=1;resizable=0;points=[];autosize=1;align=center;verticalAlign=top;spacingTop=-4;fontSize=12;" parent="1" vertex="1">
          <mxGeometry x="73" y="785.8333333333333" width="118" height="14" as="geometry"/>
        </mxCell>
        <mxCell id="mfB3y9zWAH_5rg_kUH9j-3" value="" style="endArrow=none;html=1;strokeColor=#6881B3;exitX=0.926;exitY=0.743;exitDx=0;exitDy=0;exitPerimeter=0;entryX=0;entryY=0.5;entryDx=0;entryDy=0;" parent="1" source="sPacu9p47zKpvOx0FIWo-119" target="sPacu9p47zKpvOx0FIWo-120" edge="1">
          <mxGeometry width="50" height="50" relative="1" as="geometry">
            <mxPoint x="1287" y="869" as="sourcePoint"/>
            <mxPoint x="1337" y="819" as="targetPoint"/>
          </mxGeometry>
        </mxCell>
        <mxCell id="sPacu9p47zKpvOx0FIWo-169" value="" style="points=[];aspect=fixed;html=1;align=center;shadow=0;dashed=0;image;image=img/lib/allied_telesis/computer_and_terminals/Personal_Computer.svg;strokeColor=#6881B3;fillColor=#99CCFF;fontSize=12;" parent="1" vertex="1">
          <mxGeometry x="169" y="828.8529411764707" width="30" height="41" as="geometry"/>
        </mxCell>
        <mxCell id="sPacu9p47zKpvOx0FIWo-167" value="" style="verticalLabelPosition=bottom;html=1;verticalAlign=top;align=center;strokeColor=none;fillColor=#E6E6E6;shape=mxgraph.azure.user;" parent="1" vertex="1">
          <mxGeometry x="119" y="825.8529411764706" width="40" height="40" as="geometry"/>
        </mxCell>
        <mxCell id="sPacu9p47zKpvOx0FIWo-168" value="U链内部应用用户" style="text;html=1;resizable=0;points=[];autosize=1;align=center;verticalAlign=top;spacingTop=-4;fontSize=12;" parent="1" vertex="1">
          <mxGeometry x="88" y="869.8529411764707" width="103" height="14" as="geometry"/>
        </mxCell>
        <mxCell id="mfB3y9zWAH_5rg_kUH9j-7" value="" style="endArrow=none;html=1;strokeColor=#6881B3;entryX=0;entryY=0.5;entryDx=0;entryDy=0;" parent="1" target="sPacu9p47zKpvOx0FIWo-160" edge="1">
          <mxGeometry width="50" height="50" relative="1" as="geometry">
            <mxPoint x="829" y="774" as="sourcePoint"/>
            <mxPoint x="803" y="808" as="targetPoint"/>
          </mxGeometry>
        </mxCell>
        <mxCell id="mfB3y9zWAH_5rg_kUH9j-8" value="" style="endArrow=none;html=1;strokeColor=#6881B3;entryX=0.024;entryY=0.6;entryDx=0;entryDy=0;entryPerimeter=0;" parent="1" source="sPacu9p47zKpvOx0FIWo-160" target="sPacu9p47zKpvOx0FIWo-119" edge="1">
          <mxGeometry width="50" height="50" relative="1" as="geometry">
            <mxPoint x="821" y="881" as="sourcePoint"/>
            <mxPoint x="940" y="772" as="targetPoint"/>
          </mxGeometry>
        </mxCell>
        <mxCell id="mfB3y9zWAH_5rg_kUH9j-9" value="" style="endArrow=none;html=1;strokeColor=#6881B3;" parent="1" source="sPacu9p47zKpvOx0FIWo-169" target="sPacu9p47zKpvOx0FIWo-142" edge="1">
          <mxGeometry width="50" height="50" relative="1" as="geometry">
            <mxPoint x="282" y="783" as="sourcePoint"/>
            <mxPoint x="332" y="733" as="targetPoint"/>
          </mxGeometry>
        </mxCell>
        <mxCell id="sPacu9p47zKpvOx0FIWo-83" value="" style="aspect=fixed;perimeter=ellipsePerimeter;html=1;align=center;shadow=0;dashed=0;spacingTop=3;image;image=img/lib/active_directory/generic_server.svg;strokeColor=#6881B3;strokeWidth=1;fillColor=#99CCFF;fontSize=8;" parent="1" vertex="1">
          <mxGeometry x="424" y="412" width="22.4" height="40" as="geometry"/>
        </mxCell>
        <mxCell id="sPacu9p47zKpvOx0FIWo-84" value="" style="aspect=fixed;perimeter=ellipsePerimeter;html=1;align=center;shadow=0;dashed=0;spacingTop=3;image;image=img/lib/active_directory/generic_server.svg;strokeColor=#6881B3;strokeWidth=1;fillColor=#99CCFF;fontSize=8;" parent="1" vertex="1">
          <mxGeometry x="424" y="293" width="22.4" height="40" as="geometry"/>
        </mxCell>
        <mxCell id="wzntJS4Hk8glmOeOFhAp-1" value="外联前置&lt;br style=&quot;font-size: 10px&quot;&gt;堡垒机" style="text;html=1;resizable=0;points=[];autosize=1;align=center;verticalAlign=top;spacingTop=-4;fontSize=10;" parent="1" vertex="1">
          <mxGeometry x="409" y="450.5" width="50" height="24" as="geometry"/>
        </mxCell>
        <mxCell id="wzntJS4Hk8glmOeOFhAp-2" value="" style="endArrow=none;html=1;entryX=0;entryY=0.5;entryDx=0;entryDy=0;strokeColor=#6881B3;" parent="1" source="sPacu9p47zKpvOx0FIWo-32" target="sPacu9p47zKpvOx0FIWo-84" edge="1">
          <mxGeometry width="50" height="50" relative="1" as="geometry">
            <mxPoint x="370" y="341" as="sourcePoint"/>
            <mxPoint x="420" y="291" as="targetPoint"/>
          </mxGeometry>
        </mxCell>
        <mxCell id="wzntJS4Hk8glmOeOFhAp-5" value="" style="endArrow=none;html=1;strokeColor=#6881B3;exitX=0;exitY=0.5;exitDx=0;exitDy=0;" parent="1" source="sPacu9p47zKpvOx0FIWo-83" target="sPacu9p47zKpvOx0FIWo-32" edge="1">
          <mxGeometry width="50" height="50" relative="1" as="geometry">
            <mxPoint x="327" y="521" as="sourcePoint"/>
            <mxPoint x="377" y="471" as="targetPoint"/>
          </mxGeometry>
        </mxCell>
        <mxCell id="wzntJS4Hk8glmOeOFhAp-6" value="" style="endArrow=none;html=1;strokeColor=#6881B3;exitX=1;exitY=0.5;exitDx=0;exitDy=0;entryX=0;entryY=0.5;entryDx=0;entryDy=0;" parent="1" source="sPacu9p47zKpvOx0FIWo-83" target="sPacu9p47zKpvOx0FIWo-49" edge="1">
          <mxGeometry width="50" height="50" relative="1" as="geometry">
            <mxPoint x="505" y="534" as="sourcePoint"/>
            <mxPoint x="555" y="484" as="targetPoint"/>
          </mxGeometry>
        </mxCell>
        <mxCell id="wzntJS4Hk8glmOeOFhAp-7" value="" style="endArrow=none;html=1;strokeColor=#6881B3;exitX=1;exitY=0.46;exitDx=0;exitDy=0;exitPerimeter=0;entryX=0;entryY=0.5;entryDx=0;entryDy=0;" parent="1" source="sPacu9p47zKpvOx0FIWo-51" target="sPacu9p47zKpvOx0FIWo-59" edge="1">
          <mxGeometry width="50" height="50" relative="1" as="geometry">
            <mxPoint x="743" y="585" as="sourcePoint"/>
            <mxPoint x="793" y="535" as="targetPoint"/>
          </mxGeometry>
        </mxCell>
        <mxCell id="wzntJS4Hk8glmOeOFhAp-8" value="" style="endArrow=none;html=1;strokeColor=#6881B3;entryX=0.5;entryY=1;entryDx=0;entryDy=0;exitX=0.25;exitY=0;exitDx=0;exitDy=0;" parent="1" source="sPacu9p47zKpvOx0FIWo-60" target="sPacu9p47zKpvOx0FIWo-63" edge="1">
          <mxGeometry width="50" height="50" relative="1" as="geometry">
            <mxPoint x="783" y="514" as="sourcePoint"/>
            <mxPoint x="833" y="464" as="targetPoint"/>
          </mxGeometry>
        </mxCell>
        <mxCell id="wzntJS4Hk8glmOeOFhAp-9" value="&lt;span style=&quot;font-size: 10px&quot;&gt;互联网区U链&lt;br&gt;业务应用数据库&lt;/span&gt;" style="text;html=1;resizable=0;points=[];align=center;verticalAlign=middle;labelBackgroundColor=#DAE8FC;" parent="wzntJS4Hk8glmOeOFhAp-8" vertex="1" connectable="0">
          <mxGeometry x="0.5732" y="-4" relative="1" as="geometry">
            <mxPoint x="-7" as="offset"/>
          </mxGeometry>
        </mxCell>
        <mxCell id="sPacu9p47zKpvOx0FIWo-70" value="" style="aspect=fixed;perimeter=ellipsePerimeter;html=1;align=center;shadow=0;dashed=0;spacingTop=3;image;image=img/lib/active_directory/web_server.svg;strokeColor=#6881B3;strokeWidth=1;fillColor=#99CCFF;fontSize=12;" parent="1" vertex="1">
          <mxGeometry x="941" y="272" width="32" height="40" as="geometry"/>
        </mxCell>
        <mxCell id="sPacu9p47zKpvOx0FIWo-71" value="" style="aspect=fixed;perimeter=ellipsePerimeter;html=1;align=center;shadow=0;dashed=0;spacingTop=3;image;image=img/lib/active_directory/web_server.svg;strokeColor=#6881B3;strokeWidth=1;fillColor=#99CCFF;fontSize=12;" parent="1" vertex="1">
          <mxGeometry x="959.5" y="272" width="32" height="40" as="geometry"/>
        </mxCell>
        <mxCell id="sPacu9p47zKpvOx0FIWo-74" value="" style="aspect=fixed;perimeter=ellipsePerimeter;html=1;align=center;shadow=0;dashed=0;spacingTop=3;image;image=img/lib/active_directory/database_server.svg;strokeColor=#6881B3;strokeWidth=1;fillColor=#99CCFF;fontSize=8;" parent="1" vertex="1">
          <mxGeometry x="1038.5" y="272" width="32.8" height="40" as="geometry"/>
        </mxCell>
        <mxCell id="wzntJS4Hk8glmOeOFhAp-11" value="管理后台&lt;br style=&quot;font-size: 10px&quot;&gt;PG数据库&lt;br&gt;(3台)" style="text;html=1;resizable=0;points=[];autosize=1;align=center;verticalAlign=top;spacingTop=-4;fillColor=#DAE8FC;fontSize=10;" parent="1" vertex="1">
          <mxGeometry x="1038.5" y="310" width="54" height="36" as="geometry"/>
        </mxCell>
        <mxCell id="wzntJS4Hk8glmOeOFhAp-13" value="" style="aspect=fixed;perimeter=ellipsePerimeter;html=1;align=center;shadow=0;dashed=0;spacingTop=3;image;image=img/lib/active_directory/database_server.svg;strokeColor=#6881B3;strokeWidth=1;fillColor=#99CCFF;fontSize=8;" parent="1" vertex="1">
          <mxGeometry x="1054.5" y="272" width="32.8" height="40" as="geometry"/>
        </mxCell>
        <mxCell id="wzntJS4Hk8glmOeOFhAp-16" value="" style="aspect=fixed;perimeter=ellipsePerimeter;html=1;align=center;shadow=0;dashed=0;spacingTop=3;image;image=img/lib/active_directory/database_server.svg;strokeColor=#6881B3;strokeWidth=1;fillColor=#99CCFF;fontSize=8;" parent="1" vertex="1">
          <mxGeometry x="1075" y="272" width="32.8" height="40" as="geometry"/>
        </mxCell>
        <mxCell id="wzntJS4Hk8glmOeOFhAp-20" value="" style="aspect=fixed;perimeter=ellipsePerimeter;html=1;align=center;shadow=0;dashed=0;spacingTop=3;image;image=img/lib/active_directory/generic_server.svg;strokeColor=#6881B3;strokeWidth=1;fillColor=#99CCFF;fontSize=8;" parent="1" vertex="1">
          <mxGeometry x="910.5" y="439" width="22.4" height="40" as="geometry"/>
        </mxCell>
        <mxCell id="wzntJS4Hk8glmOeOFhAp-21" value="" style="strokeColor=#6881B3;edgeStyle=none;rounded=0;endArrow=none;html=1;strokeWidth=1;fontSize=12;" parent="1" edge="1">
          <mxGeometry relative="1" as="geometry">
            <mxPoint x="996.5" y="436" as="sourcePoint"/>
            <mxPoint x="996.5" y="386" as="targetPoint"/>
          </mxGeometry>
        </mxCell>
        <mxCell id="wzntJS4Hk8glmOeOFhAp-23" value="" style="aspect=fixed;perimeter=ellipsePerimeter;html=1;align=center;shadow=0;dashed=0;spacingTop=3;image;image=img/lib/active_directory/generic_server.svg;strokeColor=#6881B3;strokeWidth=1;fillColor=#99CCFF;fontSize=8;" parent="1" vertex="1">
          <mxGeometry x="926.5" y="439" width="22.4" height="40" as="geometry"/>
        </mxCell>
        <mxCell id="sPacu9p47zKpvOx0FIWo-93" value="" style="aspect=fixed;perimeter=ellipsePerimeter;html=1;align=center;shadow=0;dashed=0;spacingTop=3;image;image=img/lib/active_directory/generic_server.svg;strokeColor=#6881B3;strokeWidth=1;fillColor=#99CCFF;fontSize=8;" parent="1" vertex="1">
          <mxGeometry x="961.5" y="439" width="22.4" height="40" as="geometry"/>
        </mxCell>
        <mxCell id="wzntJS4Hk8glmOeOFhAp-24" value="" style="strokeColor=#6881B3;edgeStyle=none;rounded=0;endArrow=none;html=1;strokeWidth=1;fontSize=12;" parent="1" edge="1">
          <mxGeometry relative="1" as="geometry">
            <mxPoint x="1066.5" y="435" as="sourcePoint"/>
            <mxPoint x="1066.5" y="385" as="targetPoint"/>
            <Array as="points">
              <mxPoint x="1066.5" y="415"/>
            </Array>
          </mxGeometry>
        </mxCell>
        <mxCell id="wzntJS4Hk8glmOeOFhAp-26" value="" style="aspect=fixed;perimeter=ellipsePerimeter;html=1;align=center;shadow=0;dashed=0;spacingTop=3;image;image=img/lib/active_directory/generic_server.svg;strokeColor=#6881B3;strokeWidth=1;fillColor=#99CCFF;fontSize=8;" parent="1" vertex="1">
          <mxGeometry x="977" y="439" width="22.4" height="40" as="geometry"/>
        </mxCell>
        <mxCell id="wzntJS4Hk8glmOeOFhAp-27" value="" style="strokeColor=#6881B3;edgeStyle=none;rounded=0;endArrow=none;html=1;strokeWidth=1;fontSize=12;" parent="1" edge="1">
          <mxGeometry relative="1" as="geometry">
            <mxPoint x="1139.5" y="436" as="sourcePoint"/>
            <mxPoint x="1139.5" y="386" as="targetPoint"/>
            <Array as="points">
              <mxPoint x="1139.5" y="416"/>
            </Array>
          </mxGeometry>
        </mxCell>
        <mxCell id="wzntJS4Hk8glmOeOFhAp-29" value="" style="aspect=fixed;perimeter=ellipsePerimeter;html=1;align=center;shadow=0;dashed=0;spacingTop=3;image;image=img/lib/active_directory/generic_server.svg;strokeColor=#6881B3;strokeWidth=1;fillColor=#99CCFF;fontSize=8;" parent="1" vertex="1">
          <mxGeometry x="991.5" y="439" width="22.4" height="40" as="geometry"/>
        </mxCell>
        <mxCell id="wzntJS4Hk8glmOeOFhAp-30" value="" style="strokeColor=#6881B3;edgeStyle=none;rounded=0;endArrow=none;html=1;strokeWidth=1;fontSize=12;" parent="1" edge="1">
          <mxGeometry relative="1" as="geometry">
            <mxPoint x="1208" y="436" as="sourcePoint"/>
            <mxPoint x="1208" y="386" as="targetPoint"/>
            <Array as="points">
              <mxPoint x="1208" y="416"/>
            </Array>
          </mxGeometry>
        </mxCell>
        <mxCell id="wzntJS4Hk8glmOeOFhAp-32" value="" style="aspect=fixed;perimeter=ellipsePerimeter;html=1;align=center;shadow=0;dashed=0;spacingTop=3;image;image=img/lib/active_directory/generic_server.svg;strokeColor=#6881B3;strokeWidth=1;fillColor=#99CCFF;fontSize=8;" parent="1" vertex="1">
          <mxGeometry x="1007" y="439" width="22.4" height="40" as="geometry"/>
        </mxCell>
        <mxCell id="wzntJS4Hk8glmOeOFhAp-33" style="edgeStyle=orthogonalEdgeStyle;rounded=0;orthogonalLoop=1;jettySize=auto;html=1;entryX=0.007;entryY=0.6;entryDx=0;entryDy=0;entryPerimeter=0;strokeColor=#6881B3;endArrow=none;endFill=0;" parent="1" target="sPacu9p47zKpvOx0FIWo-9" edge="1">
          <mxGeometry relative="1" as="geometry">
            <mxPoint x="776" y="379" as="sourcePoint"/>
            <Array as="points">
              <mxPoint x="776" y="379"/>
            </Array>
          </mxGeometry>
        </mxCell>
        <mxCell id="wzntJS4Hk8glmOeOFhAp-35" value="" style="endArrow=none;html=1;strokeColor=#6881B3;entryX=0;entryY=0.5;entryDx=0;entryDy=0;" parent="1" source="sPacu9p47zKpvOx0FIWo-142" target="sPacu9p47zKpvOx0FIWo-152" edge="1">
          <mxGeometry width="50" height="50" relative="1" as="geometry">
            <mxPoint x="449" y="877" as="sourcePoint"/>
            <mxPoint x="499" y="827" as="targetPoint"/>
          </mxGeometry>
        </mxCell>
        <mxCell id="wzntJS4Hk8glmOeOFhAp-36" style="edgeStyle=orthogonalEdgeStyle;rounded=0;orthogonalLoop=1;jettySize=auto;html=1;endArrow=none;endFill=0;strokeColor=#6881B3;" parent="1" source="sPacu9p47zKpvOx0FIWo-153" target="sPacu9p47zKpvOx0FIWo-156" edge="1">
          <mxGeometry relative="1" as="geometry"/>
        </mxCell>
        <mxCell id="wzntJS4Hk8glmOeOFhAp-45" value="" style="aspect=fixed;perimeter=ellipsePerimeter;html=1;align=center;shadow=0;dashed=0;spacingTop=3;image;image=img/lib/active_directory/generic_server.svg;strokeColor=#6881B3;strokeWidth=1;fillColor=#99CCFF;fontSize=8;" parent="1" vertex="1">
          <mxGeometry x="806.5" y="663" width="22.4" height="40" as="geometry"/>
        </mxCell>
        <mxCell id="wzntJS4Hk8glmOeOFhAp-47" value="短信平台" style="text;html=1;resizable=0;points=[];autosize=1;align=center;verticalAlign=top;spacingTop=-4;fontSize=10;" parent="1" vertex="1">
          <mxGeometry x="794" y="703" width="58" height="14" as="geometry"/>
        </mxCell>
        <mxCell id="wzntJS4Hk8glmOeOFhAp-50" value="" style="aspect=fixed;perimeter=ellipsePerimeter;html=1;align=center;shadow=0;dashed=0;spacingTop=3;image;image=img/lib/active_directory/generic_server.svg;strokeColor=#6881B3;strokeWidth=1;fillColor=#99CCFF;fontSize=8;" parent="1" vertex="1">
          <mxGeometry x="598" y="663" width="22.4" height="40" as="geometry"/>
        </mxCell>
        <mxCell id="wzntJS4Hk8glmOeOFhAp-51" value="柜员管理&lt;br&gt;系统" style="text;html=1;resizable=0;points=[];autosize=1;align=center;verticalAlign=top;spacingTop=-4;" parent="1" vertex="1">
          <mxGeometry x="578" y="703" width="58" height="28" as="geometry"/>
        </mxCell>
        <mxCell id="wzntJS4Hk8glmOeOFhAp-58" style="edgeStyle=orthogonalEdgeStyle;rounded=0;orthogonalLoop=1;jettySize=auto;html=1;exitX=0.5;exitY=0;exitDx=0;exitDy=0;entryX=0.049;entryY=0.864;entryDx=0;entryDy=0;entryPerimeter=0;endArrow=none;endFill=0;strokeColor=#6881B3;" parent="1" edge="1">
          <mxGeometry relative="1" as="geometry">
            <mxPoint x="493.28571428571445" y="830.5714285714287" as="sourcePoint"/>
            <mxPoint x="493.28571428571445" y="786.2857142857144" as="targetPoint"/>
          </mxGeometry>
        </mxCell>
        <mxCell id="wzntJS4Hk8glmOeOFhAp-59" value="" style="endArrow=none;html=1;strokeColor=#6881B3;entryX=-0.001;entryY=0.436;entryDx=0;entryDy=0;entryPerimeter=0;exitX=1.056;exitY=0.751;exitDx=0;exitDy=0;exitPerimeter=0;" parent="1" source="sPacu9p47zKpvOx0FIWo-106" target="sPacu9p47zKpvOx0FIWo-133" edge="1">
          <mxGeometry width="50" height="50" relative="1" as="geometry">
            <mxPoint x="348" y="788" as="sourcePoint"/>
            <mxPoint x="398" y="738" as="targetPoint"/>
          </mxGeometry>
        </mxCell>
        <mxCell id="sPacu9p47zKpvOx0FIWo-23" value="" style="points=[];aspect=fixed;html=1;align=center;shadow=0;dashed=0;image;image=img/lib/allied_telesis/computer_and_terminals/Personal_Computer.svg;strokeColor=#6881B3;fillColor=#99CCFF;fontSize=12;" parent="1" vertex="1">
          <mxGeometry x="158" y="363" width="30" height="41" as="geometry"/>
        </mxCell>
        <mxCell id="sPacu9p47zKpvOx0FIWo-2" value="" style="verticalLabelPosition=bottom;html=1;verticalAlign=top;align=center;strokeColor=none;fillColor=#E6E6E6;shape=mxgraph.azure.user;" parent="1" vertex="1">
          <mxGeometry x="108" y="360" width="40" height="40" as="geometry"/>
        </mxCell>
        <mxCell id="sPacu9p47zKpvOx0FIWo-5" value="U链外部应用用户" style="text;html=1;resizable=0;points=[];autosize=1;align=center;verticalAlign=top;spacingTop=-4;fontSize=12;" parent="1" vertex="1">
          <mxGeometry x="77" y="400" width="103" height="14" as="geometry"/>
        </mxCell>
        <mxCell id="nEOF1kNpwPRWHeqvcLlS-1" value="" style="shadow=0;dashed=0;html=1;labelPosition=center;verticalLabelPosition=bottom;verticalAlign=top;align=center;outlineConnect=0;shape=mxgraph.veeam.3d.proxy_appliance;direction=east;" parent="1" vertex="1">
          <mxGeometry x="1157.5" y="272" width="46" height="44.5625" as="geometry"/>
        </mxCell>
        <mxCell id="nEOF1kNpwPRWHeqvcLlS-2" value="负载均衡器" style="text;html=1;resizable=0;points=[];autosize=1;align=center;verticalAlign=top;spacingTop=-4;fontSize=10;" parent="1" vertex="1">
          <mxGeometry x="1150.5" y="315" width="60" height="10" as="geometry"/>
        </mxCell>
        <mxCell id="nEOF1kNpwPRWHeqvcLlS-3" value="" style="endArrow=none;html=1;strokeColor=#6881B3;strokeWidth=1;fontSize=8;exitX=0.485;exitY=-0.318;exitDx=0;exitDy=0;exitPerimeter=0;" parent="1" edge="1">
          <mxGeometry width="50" height="50" relative="1" as="geometry">
            <mxPoint x="1179" y="365.8200000000003" as="sourcePoint"/>
            <mxPoint x="1178" y="330" as="targetPoint"/>
          </mxGeometry>
        </mxCell>
        <mxCell id="nEOF1kNpwPRWHeqvcLlS-5" value="" style="strokeColor=#6881B3;edgeStyle=none;rounded=0;endArrow=none;html=1;strokeWidth=1;fontSize=8;" parent="1" edge="1">
          <mxGeometry relative="1" as="geometry">
            <mxPoint x="608.5" y="725" as="sourcePoint"/>
            <mxPoint x="608.5" y="767.6764705882351" as="targetPoint"/>
          </mxGeometry>
        </mxCell>
        <mxCell id="nEOF1kNpwPRWHeqvcLlS-6" value="" style="strokeColor=#6881B3;edgeStyle=none;rounded=0;endArrow=none;html=1;strokeWidth=1;fontSize=8;" parent="1" edge="1">
          <mxGeometry relative="1" as="geometry">
            <mxPoint x="817" y="723" as="sourcePoint"/>
            <mxPoint x="817" y="765.6764705882351" as="targetPoint"/>
          </mxGeometry>
        </mxCell>
        <mxCell id="drk4PGx04N2siQvlIg0v-2" value="" style="aspect=fixed;perimeter=ellipsePerimeter;html=1;align=center;shadow=0;dashed=0;spacingTop=3;image;image=img/lib/active_directory/web_server.svg;strokeColor=#6881B3;strokeWidth=1;fillColor=#99CCFF;fontSize=12;" vertex="1" parent="1">
          <mxGeometry x="1044.5" y="439" width="32" height="40" as="geometry"/>
        </mxCell>
        <mxCell id="drk4PGx04N2siQvlIg0v-3" value="" style="aspect=fixed;perimeter=ellipsePerimeter;html=1;align=center;shadow=0;dashed=0;spacingTop=3;image;image=img/lib/active_directory/web_server.svg;strokeColor=#6881B3;strokeWidth=1;fillColor=#99CCFF;fontSize=12;" vertex="1" parent="1">
          <mxGeometry x="1064.5" y="439" width="32" height="40" as="geometry"/>
        </mxCell>
        <mxCell id="drk4PGx04N2siQvlIg0v-4" value="监控平台&lt;br&gt;服务器&lt;br&gt;(2台)" style="text;html=1;resizable=0;points=[];autosize=1;align=center;verticalAlign=top;spacingTop=-4;fontSize=10;" vertex="1" parent="1">
          <mxGeometry x="1037.5" y="481" width="50" height="36" as="geometry"/>
        </mxCell>
        <mxCell id="drk4PGx04N2siQvlIg0v-5" value="" style="aspect=fixed;perimeter=ellipsePerimeter;html=1;align=center;shadow=0;dashed=0;spacingTop=3;image;image=img/lib/active_directory/database_server.svg;strokeColor=#6881B3;strokeWidth=1;fillColor=#99CCFF;fontSize=8;" vertex="1" parent="1">
          <mxGeometry x="1105.5" y="439" width="32.8" height="40" as="geometry"/>
        </mxCell>
        <mxCell id="drk4PGx04N2siQvlIg0v-6" value="" style="aspect=fixed;perimeter=ellipsePerimeter;html=1;align=center;shadow=0;dashed=0;spacingTop=3;image;image=img/lib/active_directory/database_server.svg;strokeColor=#6881B3;strokeWidth=1;fillColor=#99CCFF;fontSize=8;" vertex="1" parent="1">
          <mxGeometry x="1124.5" y="439" width="32.8" height="40" as="geometry"/>
        </mxCell>
        <mxCell id="drk4PGx04N2siQvlIg0v-7" value="" style="aspect=fixed;perimeter=ellipsePerimeter;html=1;align=center;shadow=0;dashed=0;spacingTop=3;image;image=img/lib/active_directory/database_server.svg;strokeColor=#6881B3;strokeWidth=1;fillColor=#99CCFF;fontSize=8;" vertex="1" parent="1">
          <mxGeometry x="1142.5" y="439" width="32.8" height="40" as="geometry"/>
        </mxCell>
        <mxCell id="drk4PGx04N2siQvlIg0v-8" value="监控平台&lt;br&gt;PG数据库&lt;br&gt;(3台)" style="text;html=1;resizable=0;points=[];autosize=1;align=center;verticalAlign=top;spacingTop=-4;fontSize=10;" vertex="1" parent="1">
          <mxGeometry x="1107" y="481" width="54" height="36" as="geometry"/>
        </mxCell>
        <mxCell id="drk4PGx04N2siQvlIg0v-9" value="" style="aspect=fixed;perimeter=ellipsePerimeter;html=1;align=center;shadow=0;dashed=0;spacingTop=3;image;image=img/lib/active_directory/generic_server.svg;strokeColor=#6881B3;strokeWidth=1;fillColor=#99CCFF;fontSize=8;" vertex="1" parent="1">
          <mxGeometry x="1187.5" y="439" width="22.4" height="40" as="geometry"/>
        </mxCell>
        <mxCell id="drk4PGx04N2siQvlIg0v-10" value="" style="aspect=fixed;perimeter=ellipsePerimeter;html=1;align=center;shadow=0;dashed=0;spacingTop=3;image;image=img/lib/active_directory/generic_server.svg;strokeColor=#6881B3;strokeWidth=1;fillColor=#99CCFF;fontSize=8;" vertex="1" parent="1">
          <mxGeometry x="1206" y="439" width="22.4" height="40" as="geometry"/>
        </mxCell>
        <mxCell id="drk4PGx04N2siQvlIg0v-11" value="监控内存、消息&lt;br&gt;服务器&lt;br&gt;(2台)" style="text;html=1;resizable=0;points=[];autosize=1;align=center;verticalAlign=top;spacingTop=-4;fontSize=10;" vertex="1" parent="1">
          <mxGeometry x="1172.5" y="481" width="80" height="36" as="geometry"/>
        </mxCell>
      </root>
    </mxGraphModel>
  </diagram>
</mxfile>
